<?xml version="1.0" encoding="UTF-8"?><svg id="Layer_1" xmlns="http://www.w3.org/2000/svg" viewBox="0 0 384.8 113.65"><g><path d="M353.77,62.01v2.08h-3.18v9.23h-2.62v-9.23h-3.18v-2.08h8.99Z"/><path d="M360.94,68.76c.1,.21,.19,.43,.28,.65,.09-.23,.18-.45,.28-.66,.1-.22,.2-.42,.3-.63l2.9-5.72c.05-.1,.1-.17,.16-.23s.12-.09,.18-.12,.14-.04,.23-.04h2.3v11.3h-2.31v-6.51c0-.32,.02-.66,.05-1.02l-3,5.81c-.09,.18-.22,.32-.38,.41-.16,.09-.34,.14-.54,.14h-.36c-.2,0-.38-.05-.54-.14-.16-.09-.28-.23-.38-.41l-3.01-5.82c.02,.18,.04,.36,.05,.54,.01,.18,.02,.34,.02,.49v6.51h-2.31v-11.3h2.3c.09,0,.16,.01,.23,.04,.07,.03,.13,.07,.18,.12,.05,.05,.11,.13,.16,.23l2.91,5.74c.1,.2,.2,.4,.3,.61Z"/></g><g><path d="M30.09,92.43c.91,0,1.63-.29,2.2-.83,.55-.55,.83-1.31,.83-2.28v-23.46c1.76,2.5,4.08,4.51,6.98,6.03,2.9,1.52,6.12,2.28,9.69,2.28,4.09,0,7.76-.97,11.02-2.92,3.24-1.93,5.8-4.59,7.7-7.95,1.9-3.36,2.82-7.13,2.82-11.32s-.97-8.06-2.92-11.41c-1.93-3.36-4.59-5.99-7.94-7.95-3.36-1.93-7.15-2.92-11.42-2.92s-7.89,.95-11.21,2.87c-3.32,1.91-5.95,4.53-7.89,7.85-1.93,3.32-2.92,7.11-2.98,11.24v37.66c0,.95,.28,1.71,.83,2.28,.57,.55,1.33,.83,2.27,.83m18.98-23.86c-3.03,0-5.76-.72-8.21-2.16-2.45-1.44-4.36-3.41-5.75-5.93-1.38-2.52-2.06-5.36-2.06-8.49s.68-6.03,2.06-8.54c1.39-2.5,3.3-4.47,5.75-5.93,2.44-1.46,5.17-2.2,8.21-2.2s5.84,.74,8.31,2.2c2.44,1.46,4.38,3.45,5.78,5.93,1.4,2.5,2.1,5.35,2.1,8.54s-.7,5.97-2.1,8.49c-1.4,2.52-3.34,4.51-5.78,5.93-2.45,1.44-5.22,2.16-8.31,2.16m40.37-35.42c0-.95-.26-1.71-.8-2.24-.53-.53-1.27-.8-2.24-.8s-1.71,.26-2.24,.8c-.53,.53-.8,1.27-.8,2.24v37.57c0,.95,.26,1.71,.8,2.24,.53,.53,1.27,.8,2.24,.8s1.71-.26,2.24-.8c.53-.53,.8-1.27,.8-2.24v-23.84l.02-.63c.09-2.03,.66-3.83,1.69-5.39l.32-.45c1.36-1.8,3.19-3.15,5.5-4.02,2.31-.87,4.97-1.18,7.94-.91,.91,.06,1.71,.12,2.43,.15,.72,.06,1.33-.06,1.84-.32,.51-.27,.88-.8,1.08-1.59,.32-1.33-.19-2.33-1.52-3.03-1.33-.68-3.22-1.04-5.67-1.04-3.09,0-5.9,.74-8.42,2.24-1.9,1.12-3.53,2.54-4.87,4.29l-.34,.47v-3.49Zm47.06,41.02c2.5,0,5.1-.49,7.81-1.48,2.71-.99,4.95-2.22,6.69-3.72,.64-.53,.95-1.17,.91-1.91-.02-.74-.38-1.44-1.08-2.07-.53-.42-1.18-.63-1.91-.6-.74,.02-1.4,.28-1.99,.76-1.17,1.01-2.73,1.84-4.66,2.52-1.93,.66-3.87,1.01-5.78,1.01-3.19,0-6.01-.72-8.46-2.16-2.45-1.44-4.38-3.39-5.79-5.9-1.08-1.91-1.74-4.06-2.01-6.43l-.02-.19h32.22c.72,0,1.34-.19,1.84-.55l.25-.21c.53-.51,.8-1.18,.8-2.03,0-4.15-.82-7.85-2.46-11.09-1.65-3.24-3.98-5.78-6.98-7.62-3-1.84-6.52-2.75-10.56-2.75s-7.72,.95-10.84,2.87c-3.13,1.91-5.6,4.53-7.38,7.85-1.78,3.32-2.67,7.17-2.67,11.53s.95,8.13,2.83,11.49c1.9,3.36,4.49,5.98,7.81,7.85,3.32,1.9,7.15,2.85,11.45,2.85m13.07-25.3h-29.2c.25-1.76,.7-3.39,1.36-4.91l.3-.64c1.25-2.52,3.02-4.52,5.31-5.93,2.29-1.44,4.95-2.16,7.98-2.16s5.54,.68,7.7,2.07c2.16,1.39,3.81,3.3,4.99,5.74,.77,1.63,1.29,3.39,1.52,5.31l.04,.53Z"/><path d="M196.09,73.77c1.86,0,2.79-.93,2.79-2.79s-.93-2.79-2.79-2.79h-24.06l26.05-33.43c.28-.4,.44-.89,.47-1.52l.02-.32c0-1.86-.93-2.79-2.79-2.79h-29.6c-1.86,0-2.79,.93-2.79,2.79s.93,2.79,2.79,2.79h24.25l-26.17,33.26,.04,.02-.12,.15c-.26,.38-.42,.89-.45,1.5l-.02,.32c0,1.86,.93,2.79,2.79,2.79h29.58v.02Zm31.59,.4c2.5,0,5.1-.49,7.81-1.48,2.71-.99,4.95-2.22,6.69-3.72,.64-.53,.95-1.17,.91-1.92-.02-.74-.38-1.44-1.08-2.06-.53-.42-1.17-.63-1.91-.61-.74,.02-1.4,.28-1.99,.76-1.18,1.01-2.73,1.84-4.66,2.52-1.93,.66-3.87,1.01-5.79,1.01-3.19,0-6.01-.72-8.46-2.16-2.44-1.44-4.38-3.39-5.78-5.9-1.08-1.91-1.74-4.06-2.01-6.43l-.02-.19h32.22c.72,0,1.34-.19,1.84-.55l.25-.21c.53-.51,.8-1.18,.8-2.03,0-4.15-.82-7.85-2.47-11.09-1.65-3.24-3.98-5.79-6.98-7.63-3-1.84-6.52-2.75-10.56-2.75s-7.72,.95-10.85,2.86c-3.13,1.91-5.59,4.53-7.38,7.85-1.78,3.32-2.67,7.17-2.67,11.53s.95,8.13,2.82,11.49c1.9,3.36,4.49,5.98,7.81,7.85,3.34,1.9,7.15,2.84,11.45,2.84m13.07-25.3h-29.2c.25-1.76,.7-3.39,1.36-4.91l.31-.64c1.25-2.52,3.01-4.52,5.31-5.93,2.29-1.44,4.95-2.16,7.98-2.16s5.54,.69,7.7,2.07c2.16,1.39,3.81,3.3,4.99,5.74,.78,1.63,1.29,3.39,1.52,5.31l.04,.53Zm22.28-15.62c0-.95-.28-1.71-.83-2.28-.55-.55-1.29-.83-2.2-.83s-1.71,.29-2.28,.83c-.55,.55-.83,1.31-.83,2.28v37.49c0,.91,.28,1.63,.83,2.2,.55,.55,1.31,.83,2.28,.83,.91,0,1.63-.28,2.2-.83,.55-.55,.83-1.29,.83-2.2v-23.61l.02-.61c.1-1.78,.59-3.43,1.5-4.89l.32-.5c1.23-1.76,2.88-3.13,4.98-4.15,2.1-1.01,4.46-1.52,7.06-1.52s5.14,.53,7.3,1.59c2.16,1.06,3.85,2.66,5.1,4.78,1.25,2.12,1.88,4.84,1.88,8.13v20.75c0,.85,.28,1.57,.87,2.16,.58,.59,1.33,.87,2.24,.87,.85,0,1.58-.28,2.16-.87,.58-.59,.87-1.31,.87-2.16v-20.73c0-4.36-.87-8.06-2.6-11.09-1.72-3.04-4.08-5.33-7.05-6.9-2.98-1.57-6.35-2.35-10.13-2.35-3.45,0-6.6,.76-9.41,2.28-1.95,1.04-3.64,2.37-5.04,3.94l-.06,.06v-2.67h-.02Z"/><path d="M329.65,73.77c.95,0,1.76-.28,2.39-.83,.64-.55,.95-1.29,.95-2.2s-.26-1.65-.8-2.24c-.53-.59-1.23-.87-2.07-.87h-2.16c-2.5,0-4.55-.87-6.14-2.6-1.59-1.73-2.39-3.95-2.39-6.66v-21.29h9c.68,0,1.27-.19,1.77-.55l.23-.21c.53-.51,.79-1.14,.79-1.87,0-.8-.26-1.44-.79-1.96-.53-.51-1.2-.76-1.99-.76h-9v-12.36c0-.8-.23-1.46-.67-2.01l-.21-.23c-.58-.58-1.33-.87-2.24-.87s-1.63,.29-2.2,.87c-.55,.59-.83,1.33-.83,2.24v12.36h-5.17c-.68,0-1.27,.19-1.77,.55l-.23,.21c-.53,.51-.79,1.16-.79,1.96,0,.74,.26,1.36,.79,1.87,.53,.51,1.2,.76,1.99,.76h5.17v21.29c0,2.73,.53,5.18,1.61,7.36l.3,.59c1.27,2.31,3.02,4.13,5.23,5.46,2.2,1.33,4.72,1.99,7.55,1.99h1.67Z"/></g></svg>